<svg xmlns="http://www.w3.org/2000/svg" width="30" height="30" viewBox="0 0 30 30">
    <g fill="none" fill-rule="evenodd">
        <path stroke="#646971" stroke-width="1.5" d="M20.89.75H8.974c-2.908 0-3.973.276-5.04.846-1.007.54-1.799 1.33-2.338 2.339C1.026 5 .75 6.065.75 8.974v12.052c0 2.908.276 3.973.846 5.04.54 1.007 1.33 1.799 2.339 2.338 1.066.57 2.13.846 5.039.846H20.89c2.907 0 3.972-.276 5.038-.846 1.009-.54 1.8-1.33 2.339-2.339.57-1.066.846-2.13.846-5.039V8.974c0-2.908-.276-3.973-.846-5.04-.54-1.007-1.33-1.799-2.339-2.338-1.066-.57-2.13-.846-5.038-.846z" opacity=".5" transform="translate(-.004)"/>
        <path fill="#646971" fill-rule="nonzero" d="M16.02 18.5h-4.728v-3.563h1.773c.633 0 1.182-.502 1.182-1.187 0-.445-.23-.733-.59-1.188l-2.365-2.857C10.932 9.278 10.59 9 10.11 9s-.822.278-1.182.705l-2.364 2.857c-.36.455-.591.743-.591 1.188 0 .685.549 1.188 1.182 1.188h1.773v4.75c0 .655.53 1.187 1.182 1.187h5.91c.653 0 1.182-.532 1.182-1.188 0-.655-.53-1.187-1.182-1.187zm7.684-3.563H21.93v-4.75C21.93 9.533 21.4 9 20.749 9h-5.91c-.653 0-1.183.532-1.183 1.188 0 .655.53 1.187 1.182 1.187h4.729v3.563h-1.774c-.633 0-1.182.502-1.182 1.187 0 .445.231.733.591 1.188l2.365 2.857c.36.427.702.705 1.182.705s.822-.278 1.182-.705l2.364-2.858c.36-.454.59-.742.59-1.187 0-.685-.548-1.188-1.181-1.188z" transform="translate(-.004)"/>
    </g>
</svg>
